# written by convert_mb_to_amc()
:FULLY-SPECIFIED
:DEGREES
31
upperback -2.400000 -4.821610 -0.045244
rfoot -30.108000 -21.321899
lradius 35.070499
lthumb 8.983960 45.320202
rradius 34.474300
lwrist -17.739300
rhand -24.788700 -22.702700
rhumerus -43.310501 -8.833960 -61.042400
lowerneck -6.613570 4.150830 3.745990
lhand -17.260500 15.531500
ltibia 38.753899
head 6.482970 3.019090 -2.787010
rwrist 7.449120
lfingers 7.125020
rtoes 11.381400
lowerback -1.085530 -3.634500 5.790380
rfingers 7.125020
lclavicle -0.000000 -0.000000
upperneck 16.390900 6.872540 -8.492550
rfemur -21.093901 7.615110 14.259600
thorax -2.353710 -2.519150 -3.209930
rclavicle -0.000000 -0.000000
rtibia 38.216599
lfoot -10.390700 4.617800
lhumerus -42.775398 3.567260 85.274300
rthumb 1.715690 -52.675499
root 34.905216 18.735847 5.901873 412.847992 83.165604 -317.660004
ltoes 8.561000
lfemur -24.349199 -18.025299 -4.582540
32
upperback -2.293423 -4.609004 0.120861
rfoot -32.690182 -29.128664
lradius 32.392895
lthumb 9.839046 47.523216
rradius 35.142319
lwrist -13.930387
rhand -22.626530 -23.035770
rhumerus -39.207733 -9.246650 -61.126083
lowerneck -7.630409 1.954324 1.583259
lhand -16.374304 17.773201
ltibia 38.049831
head 6.796147 1.557554 -1.607762
rwrist 6.491598
lfingers 7.125020
rtoes 13.899091
lowerback -1.426328 -3.461598 6.164119
rfingers 7.125020
lclavicle 0.000000 -0.000000
upperneck 17.780190 3.659451 -5.150714
rfemur -18.395023 4.553372 16.732965
thorax -2.048249 -2.404927 -3.279274
rclavicle 0.000000 -0.000000
rtibia 36.138718
lfoot -3.417014 14.037449
lhumerus -41.401855 10.324670 77.517204
rthumb 3.803768 -52.981556
root 34.888344 18.793415 6.144826 513.418884 82.077888 -217.049149
ltoes 18.826479
lfemur -28.565645 -18.882292 -0.492046
33
upperback -2.315288 -4.522868 0.498735
rfoot -33.395996 -32.119164
lradius 27.355442
lthumb 12.342432 46.415703
rradius 38.662693
lwrist -17.061621
rhand -21.775459 -19.994211
rhumerus -37.143822 -7.325722 -71.397934
lowerneck -8.046561 1.183080 0.794583
lhand -13.778759 16.800051
ltibia 37.809906
head 7.310205 1.080667 -0.794174
rwrist 7.639060
lfingers 7.125020
rtoes 12.699423
lowerback -1.674395 -3.393904 6.415950
rfingers 7.125020
lclavicle -0.000000 0.000000
upperneck 19.405024 2.364404 -2.713209
rfemur -15.931685 3.820345 18.535999
thorax -1.912695 -2.354528 -3.047463
rclavicle -0.000000 0.000000
rtibia 35.129688
lfoot -5.492059 19.378283
lhumerus -43.293301 13.527638 74.667206
rthumb 4.625573 -49.923679
root 35.068466 18.699818 5.606559 537.073425 79.627640 -192.573349
ltoes 16.535816
lfemur -29.261953 -20.607668 2.636715
34
upperback -2.297501 -3.721478 0.572601
rfoot -35.071167 -32.982555
lradius 26.905325
lthumb 13.380149 46.194122
rradius 33.271519
lwrist -16.827597
rhand -22.982954 -19.556871
rhumerus -39.283489 -7.412460 -78.110817
lowerneck -8.070498 0.136487 -0.012393
lhand -12.702374 16.643785
ltibia 39.384300
head 7.353145 0.381596 0.178769
rwrist 9.137480
lfingers 7.125020
rtoes 9.181622
lowerback -1.828450 -2.787411 6.415500
rfingers 7.125020
lclavicle 0.000000 0.000000
upperneck 19.662117 0.450763 0.369813
rfemur -12.590375 4.874028 17.498096
thorax -1.721133 -1.945566 -2.993886
rclavicle 0.000000 0.000000
rtibia 34.948933
lfoot -16.130116 11.081113
lhumerus -44.591064 14.404416 75.160957
rthumb 3.459540 -49.508480
root 35.312935 18.463982 4.216639 551.416016 78.722389 -176.880203
ltoes -0.705417
lfemur -25.923328 -18.338415 0.314879
35
upperback -2.313389 -3.502684 -0.043724
rfoot -33.085762 -34.626911
lradius 30.576689
lthumb 12.892339 46.552933
rradius 26.489649
lwrist -14.837308
rhand -22.085590 -19.648127
rhumerus -43.393795 -13.476911 -74.147423
lowerneck -6.994139 -1.303334 -1.598274
lhand -13.208362 16.971170
ltibia 41.179111
head 6.582044 -0.617984 0.831427
rwrist 14.434348
lfingers 7.125020
rtoes -2.727333
lowerback -1.437542 -2.636099 4.152349
rfingers 7.125020
lclavicle -0.000000 0.000000
upperneck 17.762571 -1.657833 2.125887
rfemur -9.237752 7.664856 9.912933
thorax -1.826604 -1.812393 -2.352490
rclavicle -0.000000 0.000000
rtibia 34.755978
lfoot -21.963100 6.395857
lhumerus -43.683765 12.878648 76.238907
rthumb 4.326127 -49.583961
root 35.456005 18.378674 2.302007 543.372070 76.802010 -184.519424
ltoes 2.509810
lfemur -24.694458 -15.907804 -8.736701
36
upperback -2.205200 -3.618310 0.857971
rfoot -9.027230 -30.325199
lradius 32.766899
lthumb 12.573300 46.700298
rradius 29.234200
lwrist -14.281700
rhand -21.662800 -19.643900
rhumerus -44.905899 -13.798800 -71.084702
lowerneck -5.939990 -1.821780 -1.736030
lhand -13.539300 17.098700
ltibia 40.435799
head 6.147350 -0.976819 0.634842
rwrist 14.980100
lfingers 7.125020
rtoes -12.086300
lowerback -1.069300 -2.748050 4.571730
rfingers 7.125020
lclavicle -0.000000 0.000000
upperneck 16.949900 -2.263580 1.559730
rfemur -12.144000 9.109580 2.292130
thorax -1.898400 -1.864580 -1.643810
rclavicle -0.000000 0.000000
rtibia 38.447800
lfoot -23.370399 6.950950
lhumerus -43.358002 11.365000 74.554199
rthumb 4.734350 -49.570999
root 35.343334 18.554768 0.464413 548.418030 77.048500 -179.399994
ltoes 9.807990
lfemur -23.304199 -17.326099 -13.990000
37
upperback -1.821370 -4.326968 1.119845
rfoot 15.575324 -27.029940
lradius 30.437752
lthumb 11.581742 47.767803
rradius 31.052586
lwrist -15.045656
rhand -20.275267 -19.176394
rhumerus -46.377777 -13.565425 -70.449211
lowerneck -6.022048 -2.156950 -1.953676
lhand -14.567630 18.107847
ltibia 40.545715
head 6.683314 -1.150685 0.699475
rwrist 14.339095
lfingers 7.125020
rtoes 12.195507
lowerback -0.466917 -3.295709 4.543996
rfingers 7.125020
lclavicle -0.000000 -0.000000
upperneck 18.546452 -2.686405 1.746301
rfemur -18.957750 10.669257 -2.266776
thorax -1.862673 -2.210365 -1.325868
rclavicle -0.000000 -0.000000
rtibia 47.212830
lfoot -23.521996 7.950274
lhumerus -43.408035 12.930234 68.482010
rthumb 6.074091 -49.069321
root 35.293892 18.628189 -0.717691 552.138062 75.952049 -173.848053
ltoes 14.055409
lfemur -20.814722 -19.219076 -17.355072
38
upperback -1.723930 -5.170196 1.348745
rfoot 0.871636 -37.124435
lradius 28.744215
lthumb 13.556636 47.890198
rradius 29.867689
lwrist -15.533926
rhand -18.685665 -18.810007
rhumerus -48.862801 -13.153147 -67.974037
lowerneck -6.243276 -2.598644 -2.343760
lhand -12.519217 18.351627
ltibia 41.886559
head 7.109521 -1.395474 0.473044
rwrist 15.573647
lfingers 7.125020
rtoes 26.665394
lowerback 0.203750 -3.956915 4.394753
rfingers 7.125020
lclavicle -0.000000 -0.000000
upperneck 19.737186 -3.048169 0.937587
rfemur -29.920214 5.734031 2.552392
thorax -2.152315 -2.629312 -0.944022
rclavicle -0.000000 -0.000000
rtibia 51.986176
lfoot -23.316740 8.954820
lhumerus -43.202770 14.542512 68.317863
rthumb 7.608557 -48.653141
root 35.255238 18.577410 -1.403732 550.969849 72.857079 -173.886612
ltoes 14.790133
lfemur -20.073269 -21.420622 -19.909109
39
upperback -1.478725 -6.042600 1.055590
rfoot 3.416952 -27.707209
lradius 28.399849
lthumb 14.027509 46.994972
rradius 31.958942
lwrist -15.047176
rhand -19.522818 -20.395700
rhumerus -51.957493 -12.305376 -66.767502
lowerneck -6.086545 -2.345932 -2.150393
lhand -12.030608 17.488314
ltibia 41.971577
head 7.097247 -1.216039 0.220951
rwrist 13.631690
lfingers 7.125020
rtoes 17.582380
lowerback 0.886796 -4.605814 3.383233
rfingers 7.125020
lclavicle 0.000000 -0.000000
upperneck 19.851374 -2.566103 0.132428
rfemur -46.364189 -1.727367 20.858727
thorax -2.250767 -3.054575 -0.614927
rclavicle 0.000000 -0.000000
rtibia 49.925682
lfoot -22.969873 12.077747
lhumerus -42.742050 11.886197 71.734444
rthumb 6.800459 -50.266148
root 35.211754 18.527519 -1.782607 546.902466 72.100845 -177.223465
ltoes 15.661152
lfemur -18.780369 -22.101107 -23.203403
40
upperback -1.994895 -7.569550 0.915723
rfoot 22.529541 -4.540496
lradius 29.162031
lthumb 14.041945 47.606842
rradius 29.785271
lwrist -15.798244
rhand -19.857231 -21.476397
rhumerus -55.721004 -11.835940 -66.172272
lowerneck -6.474229 -1.661678 -2.075038
lhand -12.015563 18.101221
ltibia 39.268879
head 7.261738 -0.761613 0.243142
rwrist 12.556375
lfingers 7.125020
rtoes 14.840591
lowerback 1.443349 -5.750253 2.335220
rfingers 7.125020
lclavicle 0.000000 -0.000000
upperneck 20.186335 -1.604252 0.014859
rfemur -60.236996 -13.501616 48.065468
thorax -3.035085 -3.808425 -0.034136
rclavicle 0.000000 -0.000000
rtibia 50.598061
lfoot -20.402412 9.341185
lhumerus -40.618862 9.538192 73.815300
rthumb 6.477605 -51.357227
root 35.109531 18.666578 -1.936046 542.916565 71.327560 -182.100571
ltoes 14.289649
lfemur -18.596045 -12.057961 -26.359293
41
upperback -1.791420 -7.275340 1.393560
rfoot 25.105000 -6.076960
lradius 31.636700
lthumb 11.566300 48.831902
rradius 23.251200
lwrist -14.764100
rhand -13.011100 -16.753799
rhumerus -52.381802 -12.208700 -69.339996
lowerneck -4.936640 -2.657930 -2.615180
lhand -14.583700 19.171101
ltibia 39.108898
head 6.525520 -1.476400 0.739084
rwrist 22.442200
lfingers 7.125020
rtoes 19.319700
lowerback 1.571490 -5.578400 3.804950
rfingers 7.125020
lclavicle 0.000000 0.000000
upperneck 18.579901 -3.257970 1.617790
rfemur -65.210701 -8.848310 40.207401
thorax -3.014060 -3.680680 -0.354770
rclavicle 0.000000 0.000000
rtibia 51.204300
lfoot -21.577000 11.989200
lhumerus -37.213501 10.914000 74.542297
rthumb 13.082500 -46.323502
root 34.684628 18.654984 -1.927067 549.163025 69.304604 -176.942993
ltoes 18.862801
lfemur -21.202999 -8.737170 -25.844801
